<mxfile host="app.diagrams.net" modified="2023-11-23T17:35:54.775Z" agent="Mozilla/5.0 (X11; Linux x86_64; rv:109.0) Gecko/20100101 Firefox/119.0" version="22.1.3" etag="ZJc1Xcnx_LEVC-_1xSrc" type="github">
  <diagram name="Page-1" id="y6iwyL3jviqNe1969kEd">
    <mxGraphModel>
      <root>
        <mxCell id="0" />
        <mxCell id="1" parent="0" />
      </root>
    </mxGraphModel>
  </diagram>
</mxfile>
